<svg viewBox="0 0 227.71 227.71" xmlns="http://www.w3.org/2000/svg">
    <path class="back" d="m113.85 221.71c59.57 0 107.85-48.29 107.85-107.85s-48.28-107.86-107.85-107.86-107.85 48.29-107.85 107.85 48.29 107.85 107.85 107.85" fill="#e4e4e4"/>
    <circle cx="113.85" cy="113.85" fill="none" r="107.85" stroke="#2b2b2a" stroke-width="12"/>
    <path class="backW" d="m113.85 179.07c36.02 0 65.22-29.2 65.22-65.22s-29.2-65.21-65.22-65.21-65.21 29.2-65.21 65.21 29.2 65.22 65.22 65.22" fill="#fff"/>
    <path class="greenS" d="m113.85 179.07c36.02 0 65.22-29.2 65.22-65.22s-29.2-65.21-65.22-65.21-65.21 29.2-65.21 65.21 29.2 65.22 65.22 65.22z" fill="none" stroke="#51ab5f" stroke-width="12"/>
    <path class="greenF" d="m48.64 113.85c0 36.02 29.2 65.22 65.22 65.22s65.21-29.2 65.21-65.22" fill="#51ab5f"/>
    <path class="greenS" d="m48.64 113.85c0 36.02 29.2 65.22 65.22 65.22s65.21-29.2 65.21-65.22" fill="none" stroke="#51ab5f" stroke-width="12"/>
</svg>