<?xml version="1.0" encoding="UTF-8" standalone="no"?>
<!-- Created with Inkscape (http://www.inkscape.org/) -->

<svg
   version="1.1"
   id="svg2"
   xml:space="preserve"
   viewBox="0 0 106.96 106.96"
   sodipodi:docname="icon_UmweltKlima.eps"
   xmlns:inkscape="http://www.inkscape.org/namespaces/inkscape"
   xmlns:sodipodi="http://sodipodi.sourceforge.net/DTD/sodipodi-0.dtd"
   xmlns="http://www.w3.org/2000/svg"
   xmlns:svg="http://www.w3.org/2000/svg"><defs
     id="defs6" /><sodipodi:namedview
     id="namedview4"
     pagecolor="#ffffff"
     bordercolor="#666666"
     borderopacity="1.0"
     inkscape:pageshadow="2"
     inkscape:pageopacity="0.0"
     inkscape:pagecheckerboard="0" /><g
     id="g8"
     inkscape:groupmode="layer"
     inkscape:label="ink_ext_XXXXXX"
     transform="matrix(1.3333333,0,0,-1.3333333,0,106.96)"><g
       id="g10"
       transform="scale(0.1)"><path
         d="M 420.121,474.395 V 280.641 h -32.562 v 68.382 l -86.293,91.18 24.422,22.793 61.871,-66.754 v 86.293 l -35.821,109.086 30.934,9.77 30.937,-92.805 86.293,40.703 14.653,-29.305 z m 260.508,4.882 c -9.77,26.051 -27.68,43.961 -52.102,53.731 24.422,40.707 27.68,81.41 0,120.484 -30.937,43.961 -74.894,52.102 -123.742,30.938 -14.652,47.215 -47.219,74.894 -96.062,74.894 -50.473,0 -83.035,-26.051 -99.317,-74.894 -42.332,17.91 -81.41,11.394 -113.972,-21.168 -39.079,-39.074 -40.707,-84.664 -11.399,-130.254 -17.91,-8.141 -32.562,-19.539 -42.332,-35.82 -19.539,-29.305 -19.539,-61.872 -6.512,-94.434 17.911,-43.961 65.125,-66.754 110.715,-58.613 42.332,-42.332 89.547,-63.5 140.024,-66.754 V 77.1211 h 40.703 V 279.012 c 47.219,6.515 94.433,29.308 140.023,66.758 19.539,-6.512 39.074,-3.258 56.985,4.882 52.101,17.911 78.152,74.899 56.988,128.625"
         style="fill:#040606;fill-opacity:1;fill-rule:nonzero;stroke:none"
         id="path12" /></g></g></svg>
