<?xml version="1.0" encoding="UTF-8" standalone="no"?>
<!-- Created with Inkscape (http://www.inkscape.org/) -->

<svg
   version="1.1"
   id="svg2"
   xml:space="preserve"
   viewBox="0 0 106.96 106.96"
   sodipodi:docname="icon_Standortattraktivitaet.eps"
   xmlns:inkscape="http://www.inkscape.org/namespaces/inkscape"
   xmlns:sodipodi="http://sodipodi.sourceforge.net/DTD/sodipodi-0.dtd"
   xmlns="http://www.w3.org/2000/svg"
   xmlns:svg="http://www.w3.org/2000/svg"><defs
     id="defs6" /><sodipodi:namedview
     id="namedview4"
     pagecolor="#ffffff"
     bordercolor="#666666"
     borderopacity="1.0"
     inkscape:pageshadow="2"
     inkscape:pageopacity="0.0"
     inkscape:pagecheckerboard="0" /><g
     id="g8"
     inkscape:groupmode="layer"
     inkscape:label="ink_ext_XXXXXX"
     transform="matrix(1.3333333,0,0,-1.3333333,0,106.96)"><g
       id="g10"
       transform="scale(0.1)"><path
         d="m 402.73,425.551 c -53.726,0 -97.687,43.961 -97.687,97.687 0,53.731 43.961,97.692 97.687,97.692 53.731,0 97.692,-43.961 97.692,-97.692 0,-55.355 -43.961,-97.687 -97.692,-97.687 z m -1.628,278.418 c -99.317,0 -179.098,-79.781 -179.098,-179.102 0,-34.191 9.769,-66.754 26.051,-94.433 L 402.73,182.949 554.148,433.691 c 16.286,27.676 26.051,60.243 26.051,91.176 0,99.321 -79.777,179.102 -179.097,179.102"
         style="fill:#040606;fill-opacity:1;fill-rule:nonzero;stroke:none"
         id="path12" /><path
         d="M 305.043,129.223 H 500.422 V 96.6563 H 305.043 v 32.5667"
         style="fill:#040606;fill-opacity:1;fill-rule:nonzero;stroke:none"
         id="path14" /></g></g></svg>
