<?xml version="1.0" encoding="utf-8"?>
<!-- Generator: Adobe Illustrator 27.3.1, SVG Export Plug-In . SVG Version: 6.00 Build 0)  -->
<svg version="1.1"
	 id="svg2" xmlns:inkscape="http://www.inkscape.org/namespaces/inkscape" xmlns:svg="http://www.w3.org/2000/svg" xmlns:sodipodi="http://sodipodi.sourceforge.net/DTD/sodipodi-0.dtd" sodipodi:docname="icon_RegulierungSteuern.eps"
	 xmlns="http://www.w3.org/2000/svg" xmlns:xlink="http://www.w3.org/1999/xlink" x="0px" y="0px" viewBox="0 0 107 107"
	 style="enable-background:new 0 0 107 107;" xml:space="preserve">
<sodipodi:namedview  bordercolor="#666666" borderopacity="1.0" id="namedview4" inkscape:pagecheckerboard="0" inkscape:pageopacity="0.0" inkscape:pageshadow="2" pagecolor="#ffffff">
	</sodipodi:namedview>
<g>
	<path d="M63.2,71.2c-1.6,0-2.7,1.3-2.7,2.7s1.3,2.7,2.7,2.7c0.7,0,1.6-0.2,2-0.9c0.7-0.7,0.9-1.3,0.9-2
		C66.1,72.5,64.7,71.2,63.2,71.2z"/>
	<path d="M44.4,54.9c0.7-0.7,0.9-1.3,0.9-2c0-1.6-1.3-2.7-2.7-2.7S40,51.5,40,52.9c0,1.3,1.3,2.7,2.7,2.7
		C43.1,55.8,44,55.5,44.4,54.9z"/>
	<path d="M58.5,25.2c5.8-2,9.8-7.6,9.8-14.3H37.7c0,6.5,4,12,9.8,14.3c-19,2.7-33.2,19-33.2,38.4v31.7h77.6V63.6
		C91.7,44,77,27.9,58.5,25.2z M35.5,52.9c0-3.8,3.1-6.9,6.9-6.9c3.8,0,6.9,3.1,6.9,6.9c0,2-0.9,3.8-2,5.1c-1.3,1.3-2.9,2-5.1,2
		C38.6,59.8,35.5,56.7,35.5,52.9z M40.2,78.5l19.8-31.9l4.5,2.7L44.7,81.2L40.2,78.5z M68.1,79.2c-1.1,1.1-2.7,2-4.5,2
		c-0.2,0-0.4,0-0.7,0l0,0c-3.6,0-6.7-3.1-6.7-6.9s3.1-6.9,6.9-6.9s6.9,3.1,6.9,6.9C70.3,75.6,69.6,77.4,68.1,79.2z"/>
</g>
</svg>
