<?xml version="1.0" encoding="UTF-8" standalone="no"?>
<!-- Created with Inkscape (http://www.inkscape.org/) -->

<svg
   version="1.1"
   id="svg2"
   xml:space="preserve"
   viewBox="0 0 106.96 106.96"
   sodipodi:docname="icon_InternationaleVerflechung.eps"
   xmlns:inkscape="http://www.inkscape.org/namespaces/inkscape"
   xmlns:sodipodi="http://sodipodi.sourceforge.net/DTD/sodipodi-0.dtd"
   xmlns="http://www.w3.org/2000/svg"
   xmlns:svg="http://www.w3.org/2000/svg"><defs
     id="defs6" /><sodipodi:namedview
     id="namedview4"
     pagecolor="#ffffff"
     bordercolor="#666666"
     borderopacity="1.0"
     inkscape:pageshadow="2"
     inkscape:pageopacity="0.0"
     inkscape:pagecheckerboard="0" /><g
     id="g8"
     inkscape:groupmode="layer"
     inkscape:label="ink_ext_XXXXXX"
     transform="matrix(1.3333333,0,0,-1.3333333,0,106.96)"><g
       id="g10"
       transform="scale(0.1)"><path
         d="M 220.426,262.73 C 108.082,375.074 104.824,554.176 209.031,669.773 l 42.332,-42.332 c -35.82,-42.332 -58.617,-96.062 -58.617,-156.304 0,-131.879 107.461,-237.711 237.715,-237.711 60.242,0 113.973,22.793 156.305,58.613 l 42.332,-42.332 C 511.871,147.133 332.77,150.387 220.426,262.73 Z m 457.515,-60.242 22.797,22.797 -91.179,91.176 c 37.449,42.332 58.617,96.062 58.617,156.305 0,131.882 -107.461,237.714 -237.715,237.714 -60.242,0 -113.973,-22.796 -156.305,-58.617 l -96.062,96.063 -22.793,-22.793 30.933,-30.934 C 69.0078,565.57 73.8906,365.309 197.633,239.938 246.477,191.094 306.719,160.156 370.219,148.762 340.91,134.105 321.371,104.801 321.371,70.6094 V 54.3242 h 175.844 v 16.2852 c 0,30.9336 -16.281,58.6136 -40.703,73.2656 70.011,4.887 138.394,34.191 193.754,83.035 l 27.675,-24.422"
         style="fill:#040606;fill-opacity:1;fill-rule:nonzero;stroke:none"
         id="path12" /></g></g></svg>
