<?xml version="1.0" encoding="UTF-8" standalone="no"?>
<!-- Created with Inkscape (http://www.inkscape.org/) -->

<svg
   version="1.1"
   id="svg2"
   xml:space="preserve"
   viewBox="0 0 106.96 106.96"
   sodipodi:docname="icon_UnternehmensFTI.eps"
   xmlns:inkscape="http://www.inkscape.org/namespaces/inkscape"
   xmlns:sodipodi="http://sodipodi.sourceforge.net/DTD/sodipodi-0.dtd"
   xmlns="http://www.w3.org/2000/svg"
   xmlns:svg="http://www.w3.org/2000/svg"><defs
     id="defs6" /><sodipodi:namedview
     id="namedview4"
     pagecolor="#ffffff"
     bordercolor="#666666"
     borderopacity="1.0"
     inkscape:pageshadow="2"
     inkscape:pageopacity="0.0"
     inkscape:pagecheckerboard="0" /><g
     id="g8"
     inkscape:groupmode="layer"
     inkscape:label="ink_ext_XXXXXX"
     transform="matrix(1.3333333,0,0,-1.3333333,0,106.96)"><g
       id="g10"
       transform="scale(0.1)"><path
         d="m 634.859,422.293 h 94.438 V 389.73 h -94.438 v 32.563"
         style="fill:#040606;fill-opacity:1;fill-rule:nonzero;stroke:none"
         id="path12" /><path
         d="M 71.5117,422.293 H 165.945 V 389.73 H 71.5117 v 32.563"
         style="fill:#040606;fill-opacity:1;fill-rule:nonzero;stroke:none"
         id="path14" /><path
         d="m 137.445,645.969 23.024,23.027 66.773,-66.773 -23.023,-23.028 -66.774,66.774"
         style="fill:#040606;fill-opacity:1;fill-rule:nonzero;stroke:none"
         id="path16" /><path
         d="m 384.121,751.184 h 32.567 V 656.75 h -32.567 v 94.434"
         style="fill:#040606;fill-opacity:1;fill-rule:nonzero;stroke:none"
         id="path18" /><path
         d="m 573.988,601.773 66.774,66.778 23.027,-23.028 -66.773,-66.773 -23.028,23.023"
         style="fill:#040606;fill-opacity:1;fill-rule:nonzero;stroke:none"
         id="path20" /><path
         d="m 512.746,293.668 -8.141,-8.141 c -16.281,-16.285 -34.191,-34.195 -42.332,-58.617 -3.253,-8.14 -4.882,-16.281 -6.511,-22.793 H 416.688 V 412.523 H 384.121 V 204.117 h -42.332 c -6.512,30.938 -21.168,58.613 -47.215,79.781 -35.82,32.563 -55.359,71.637 -55.359,113.973 -1.629,66.754 27.68,115.598 84.664,148.164 45.59,24.422 97.691,26.051 143.281,3.254 47.215,-22.793 79.778,-65.125 87.918,-117.226 9.774,-52.102 -4.883,-99.321 -42.332,-138.395 z m -30.933,284.93 c -55.36,26.05 -118.856,24.422 -172.586,-4.883 -68.383,-37.449 -104.204,-99.32 -102.575,-177.473 1.629,-52.101 24.422,-99.32 66.754,-136.765 26.051,-24.422 39.078,-53.731 39.078,-89.551 0,-17.91 0,-24.422 0,-35.821 v -22.792 l 14.653,-61.8716 h 141.652 l 17.906,56.9846 v 16.285 c 0,8.141 0,14.652 0,21.164 0,9.77 0,16.281 0,32.563 0,11.398 3.258,26.05 8.145,40.707 4.883,17.91 19.539,30.933 34.191,45.585 l 8.141,8.141 c 45.586,47.219 63.5,102.578 52.101,166.074 -11.398,63.5 -50.472,113.973 -107.46,141.653"
         style="fill:#040606;fill-opacity:1;fill-rule:nonzero;stroke:none"
         id="path22" /></g></g></svg>
