<?xml version="1.0" encoding="UTF-8" standalone="no"?>
<!-- Created with Inkscape (http://www.inkscape.org/) -->

<svg
   version="1.1"
   id="svg2"
   xml:space="preserve"
   viewBox="0 0 106.96 106.96"
   sodipodi:docname="icon_Kreislaufwirtschaft.eps"
   xmlns:inkscape="http://www.inkscape.org/namespaces/inkscape"
   xmlns:sodipodi="http://sodipodi.sourceforge.net/DTD/sodipodi-0.dtd"
   xmlns="http://www.w3.org/2000/svg"
   xmlns:svg="http://www.w3.org/2000/svg"><defs
     id="defs6" /><sodipodi:namedview
     id="namedview4"
     pagecolor="#ffffff"
     bordercolor="#666666"
     borderopacity="1.0"
     inkscape:pageshadow="2"
     inkscape:pageopacity="0.0"
     inkscape:pagecheckerboard="0" /><g
     id="g8"
     inkscape:groupmode="layer"
     inkscape:label="ink_ext_XXXXXX"
     transform="matrix(1.3333333,0,0,-1.3333333,0,106.96)"><g
       id="g10"
       transform="scale(0.1)"><path
         d="m 674.676,375.074 c 0,-153.047 -125.371,-278.4177 -278.418,-278.4177 -153.047,0 -278.418,125.3707 -278.418,278.4177 0,153.051 125.371,278.418 278.418,278.418 68.383,0 131.883,-24.422 182.355,-70.012 l -96.062,-4.882 1.629,-32.563 146.535,6.512 -4.883,144.906 -32.566,-3.254 v -81.41 C 537.91,658.379 469.527,684.43 396.258,684.43 225.301,684.43 85.2773,546.035 85.2773,373.445 85.2773,200.859 223.672,62.4648 396.258,62.4648 c 172.586,0 310.98,138.3942 310.98,310.9802 h -32.562 v 1.629"
         style="fill:#040606;fill-opacity:1;fill-rule:nonzero;stroke:none"
         id="path12" /><path
         d="M 339.273,350.652 358.809,370.191 391.375,336 v 40.703 l -22.797,66.754 26.051,8.145 17.91,-55.36 50.473,24.422 11.398,-24.422 -56.984,-27.679 V 226.91 h -27.684 v 68.387 z m 81.407,-193.75 v 73.266 c 76.523,6.512 136.769,71.641 136.769,149.793 0,83.035 -68.386,151.418 -151.422,151.418 -83.035,0 -151.418,-68.383 -151.418,-151.418 0,-78.152 60.243,-143.281 136.766,-149.793 v -73.266 h 29.305"
         style="fill:#040606;fill-opacity:1;fill-rule:nonzero;stroke:none"
         id="path14" /></g></g></svg>
