<?xml version="1.0" encoding="UTF-8" standalone="no"?>
<!-- Created with Inkscape (http://www.inkscape.org/) -->

<svg
   version="1.1"
   id="svg2"
   xml:space="preserve"
   viewBox="0 0 106.96 106.96"
   sodipodi:docname="icon_AkademischeBildung.eps"
   xmlns:inkscape="http://www.inkscape.org/namespaces/inkscape"
   xmlns:sodipodi="http://sodipodi.sourceforge.net/DTD/sodipodi-0.dtd"
   xmlns="http://www.w3.org/2000/svg"
   xmlns:svg="http://www.w3.org/2000/svg"><defs
     id="defs6" /><sodipodi:namedview
     id="namedview4"
     pagecolor="#ffffff"
     bordercolor="#666666"
     borderopacity="1.0"
     inkscape:pageshadow="2"
     inkscape:pageopacity="0.0"
     inkscape:pagecheckerboard="0" /><g
     id="g8"
     inkscape:groupmode="layer"
     inkscape:label="ink_ext_XXXXXX"
     transform="matrix(1.3333333,0,0,-1.3333333,0,106.96)"><g
       id="g10"
       transform="scale(0.1)"><path
         d="m 531.023,202.488 -81.41,3.258 c 22.793,22.793 37.45,50.473 47.215,83.035 14.656,52.102 8.145,99.321 -17.906,140.024 -14.656,21.168 -35.82,40.707 -58.617,52.101 l 13.027,43.961 c 30.934,-6.512 105.828,-34.191 130.254,-120.484 -17.91,-13.024 -29.309,-32.563 -29.309,-56.985 0,-17.91 8.141,-35.82 21.168,-48.847 3.254,-3.254 6.512,-6.512 11.399,-8.141 -9.77,-39.074 -26.051,-73.265 -35.821,-87.922 z m 74.895,76.528 v 0 c 17.91,0 35.82,8.136 48.844,21.164 13.027,13.023 21.168,30.933 19.539,48.843 0,37.45 -30.934,70.012 -70.012,70.012 v 0 0 c -3.258,0 -6.512,0 -9.769,-1.629 C 565.215,515.098 480.551,547.66 443.102,557.43 l 42.332,136.769 -143.282,43.961 -86.293,-280.047 -4.882,-16.281 c -6.512,-19.539 -3.258,-39.078 4.882,-55.359 9.77,-17.91 24.422,-30.934 43.961,-35.821 6.516,-1.629 14.657,-3.254 21.168,-3.254 30.934,0 60.242,19.536 70.012,50.473 l 6.512,16.281 11.398,37.45 c 16.281,-8.145 30.934,-22.797 40.703,-39.079 21.164,-32.562 26.051,-70.011 13.024,-113.972 -8.141,-27.68 -21.164,-52.102 -40.703,-71.637 -4.883,-4.887 -16.282,-13.027 -29.305,-21.168 l -4.887,-3.258 H 107.695 V 64.0938 H 640.109 V 202.488 h -74.894 c 9.765,17.91 21.164,45.59 29.305,76.528 6.511,0 8.14,0 11.398,0"
         style="fill:#040606;fill-opacity:1;fill-rule:nonzero;stroke:none"
         id="path12" /></g></g></svg>
