<?xml version="1.0" encoding="UTF-8" standalone="no"?>
<!-- Created with Inkscape (http://www.inkscape.org/) -->

<svg
   version="1.1"
   id="svg2"
   xml:space="preserve"
   viewBox="0 0 106.96 106.96"
   sodipodi:docname="icon_TertiaereBildung.eps"
   xmlns:inkscape="http://www.inkscape.org/namespaces/inkscape"
   xmlns:sodipodi="http://sodipodi.sourceforge.net/DTD/sodipodi-0.dtd"
   xmlns="http://www.w3.org/2000/svg"
   xmlns:svg="http://www.w3.org/2000/svg"><defs
     id="defs6" /><sodipodi:namedview
     id="namedview4"
     pagecolor="#ffffff"
     bordercolor="#666666"
     borderopacity="1.0"
     inkscape:pageshadow="2"
     inkscape:pageopacity="0.0"
     inkscape:pagecheckerboard="0" /><g
     id="g8"
     inkscape:groupmode="layer"
     inkscape:label="ink_ext_XXXXXX"
     transform="matrix(1.3333333,0,0,-1.3333333,0,106.96)"><g
       id="g10"
       transform="scale(0.1)"><path
         d="M 178.27,360.422 V 223.656 c 0,-63.5 92.804,-113.972 211.66,-113.972 118.859,0 211.664,50.472 211.664,113.972 L 603.223,362.051 391.559,236.68 178.27,360.422"
         style="fill:#040606;fill-opacity:1;fill-rule:nonzero;stroke:none"
         id="path12" /><path
         d="M 744.871,357.164 V 480.906 L 746.5,482.535 391.559,692.57 34.9883,482.535 389.93,272.5 710.68,461.367 V 357.164 c -6.512,-3.254 -13.024,-6.512 -19.535,-11.394 -9.77,-9.77 -14.657,-22.793 -14.657,-35.821 0,-13.023 4.887,-26.051 14.657,-35.82 9.765,-9.77 22.793,-14.652 35.82,-14.652 v 0 c 27.676,0 50.473,22.793 50.473,50.472 1.625,21.164 -13.028,40.703 -32.567,47.215"
         style="fill:#040606;fill-opacity:1;fill-rule:nonzero;stroke:none"
         id="path14" /></g></g></svg>
