<?xml version="1.0" encoding="UTF-8" standalone="no"?>
<!-- Created with Inkscape (http://www.inkscape.org/) -->

<svg
   version="1.1"
   id="svg2"
   xml:space="preserve"
   viewBox="0 0 106.96 106.96"
   sodipodi:docname="icon_Effizienz.eps"
   xmlns:inkscape="http://www.inkscape.org/namespaces/inkscape"
   xmlns:sodipodi="http://sodipodi.sourceforge.net/DTD/sodipodi-0.dtd"
   xmlns="http://www.w3.org/2000/svg"
   xmlns:svg="http://www.w3.org/2000/svg"><defs
     id="defs6" /><sodipodi:namedview
     id="namedview4"
     pagecolor="#ffffff"
     bordercolor="#666666"
     borderopacity="1.0"
     inkscape:pageshadow="2"
     inkscape:pageopacity="0.0"
     inkscape:pagecheckerboard="0" /><g
     id="g8"
     inkscape:groupmode="layer"
     inkscape:label="ink_ext_XXXXXX"
     transform="matrix(1.3333333,0,0,-1.3333333,0,106.96)"><g
       id="g10"
       transform="scale(0.1)"><path
         d="m 389.246,225.285 v 0 c -34.191,0 -68.383,14.653 -92.805,39.074 -26.05,26.051 -39.078,58.614 -39.078,92.805 0,68.387 52.102,123.742 117.231,131.883 V 340.883 H 522.758 C 512.988,275.758 456.004,225.285 389.246,225.285 Z M 521.129,373.449 H 405.531 v 115.598 c 61.867,-8.141 109.082,-55.356 115.598,-115.598 z m 29.309,166.071 11.394,14.656 c 8.141,-3.258 16.281,-4.887 24.426,-3.258 14.652,1.629 29.305,9.77 37.445,21.168 l -79.781,66.754 v 0 c -9.77,-11.399 -16.281,-24.422 -14.652,-40.703 1.628,-9.77 4.882,-19.539 9.769,-26.051 L 527.641,557.43 c -32.563,22.797 -70.012,37.449 -110.715,42.336 11.394,4.882 22.793,11.394 32.562,19.535 17.91,17.91 27.68,43.961 26.051,68.383 H 299.695 v 0 c -1.625,-24.422 6.516,-48.844 24.422,-68.383 9.77,-9.77 22.797,-16.281 35.821,-21.164 -37.446,-4.887 -73.266,-17.91 -104.204,-39.078 l -9.765,13.027 c 4.883,8.141 8.14,17.91 8.14,27.68 0,16.281 -6.515,29.304 -16.285,39.074 l -76.523,-71.641 v 0 c 9.769,-11.394 22.797,-17.91 39.078,-19.539 6.512,0 14.652,1.629 21.164,3.258 l 9.77,-13.023 c -50.473,-43.961 -83.036,-109.09 -83.036,-182.356 0,-63.5 24.422,-125.371 71.637,-172.59 47.219,-47.215 107.461,-73.265 172.59,-73.265 v 0 c 65.125,0 125.367,26.05 172.586,71.64 47.215,47.215 73.265,107.457 73.265,170.957 -3.253,76.524 -35.816,143.282 -87.917,187.239"
         style="fill:#040606;fill-opacity:1;fill-rule:nonzero;stroke:none"
         id="path12" /></g></g></svg>
