<?xml version="1.0" encoding="UTF-8" standalone="no"?>
<!-- Created with Inkscape (http://www.inkscape.org/) -->

<svg
   version="1.1"
   id="svg2"
   xml:space="preserve"
   viewBox="0 0 106.96 106.96"
   sodipodi:docname="icon_Finanzierung.eps"
   xmlns:inkscape="http://www.inkscape.org/namespaces/inkscape"
   xmlns:sodipodi="http://sodipodi.sourceforge.net/DTD/sodipodi-0.dtd"
   xmlns="http://www.w3.org/2000/svg"
   xmlns:svg="http://www.w3.org/2000/svg"><defs
     id="defs6" /><sodipodi:namedview
     id="namedview4"
     pagecolor="#ffffff"
     bordercolor="#666666"
     borderopacity="1.0"
     inkscape:pageshadow="2"
     inkscape:pageopacity="0.0"
     inkscape:pagecheckerboard="0" /><g
     id="g8"
     inkscape:groupmode="layer"
     inkscape:label="ink_ext_XXXXXX"
     transform="matrix(1.3333333,0,0,-1.3333333,0,106.96)"><g
       id="g10"
       transform="scale(0.1)"><path
         d="m 719.754,337.629 c -1.629,-6.516 -6.516,-11.399 -13.027,-16.281 L 535.77,209.004 c -11.399,-8.141 -24.422,-16.281 -35.821,-24.426 -19.539,-13.023 -40.707,-14.652 -65.129,-6.512 l -32.562,13.028 c -39.074,16.281 -79.781,32.562 -120.485,48.844 -13.023,4.882 -26.05,6.511 -37.449,6.511 -3.254,0 -4.883,0 -8.14,0 v 151.422 h 16.285 c 30.933,1.629 52.097,-3.258 70.008,-13.027 17.91,-9.77 32.566,-17.91 43.961,-26.051 19.539,-14.652 40.707,-17.91 63.5,-19.535 17.91,0 35.82,0 55.359,0 17.91,0 35.82,0 53.726,0 h 9.77 c 9.77,0 17.91,-8.145 17.91,-17.91 0,-9.77 -8.14,-17.91 -17.91,-17.91 v 0 H 498.32 412.027 v -32.567 h 86.293 50.473 v 0 c 21.168,0 40.703,14.656 47.219,35.82 21.164,13.028 66.754,42.332 86.293,53.731 13.023,8.141 26.05,4.887 32.562,-6.512 4.887,-4.887 6.516,-9.769 4.887,-16.281 z m 24.422,35.82 c -17.91,26.051 -50.473,34.192 -78.153,16.281 -16.281,-9.769 -50.472,-30.937 -73.269,-43.96 -8.141,16.281 -24.422,27.679 -43.961,27.679 h -9.77 c -17.91,0 -37.445,0 -55.355,0 -17.91,0 -35.82,0 -53.73,0 -21.168,1.625 -32.563,3.254 -45.59,13.024 -13.024,9.769 -29.305,19.539 -48.844,29.308 -30.938,14.653 -63.5,16.282 -86.293,16.282 H 232.93 v 50.472 H 71.7383 V 169.926 H 232.93 v 47.219 c 3.258,0 4.883,0 8.14,0 9.77,0 17.91,0 26.051,-3.258 40.703,-16.282 81.41,-32.563 120.484,-48.844 l 32.563,-13.027 c 13.027,-4.883 26.051,-8.141 39.078,-8.141 19.539,0 37.445,6.512 55.356,17.91 11.398,8.141 24.421,16.281 35.82,22.793 l 172.59,112.348 c 13.023,8.137 22.793,21.164 26.047,35.816 6.515,11.399 3.257,27.68 -4.883,40.707"
         style="fill:#040606;fill-opacity:1;fill-rule:nonzero;stroke:none"
         id="path12" /><path
         d="m 457.617,441.832 v 0 c 39.074,0 71.641,32.563 71.641,71.637 0,39.078 -32.567,71.64 -71.641,71.64 v 0 c -17.91,0 -35.82,-8.14 -50.472,-21.164 -13.028,-13.027 -21.168,-30.937 -21.168,-50.476 0,-19.535 6.511,-35.821 21.168,-50.473 14.652,-13.023 32.562,-21.164 50.472,-21.164"
         style="fill:#040606;fill-opacity:1;fill-rule:nonzero;stroke:none"
         id="path14" /><path
         d="m 596.012,550.918 v 0 c 29.304,0 55.355,24.422 55.355,55.359 0,29.305 -24.422,55.356 -55.355,55.356 v 0 c -14.657,0 -27.68,-4.883 -39.078,-16.281 -9.766,-9.77 -16.282,-24.422 -16.282,-39.075 0,-14.656 4.887,-27.679 16.282,-39.078 11.398,-9.769 24.421,-16.281 39.078,-16.281"
         style="fill:#040606;fill-opacity:1;fill-rule:nonzero;stroke:none"
         id="path16" /></g></g></svg>
