<?xml version="1.0" encoding="UTF-8" standalone="no"?>
<!-- Created with Inkscape (http://www.inkscape.org/) -->

<svg
   version="1.1"
   id="svg2"
   xml:space="preserve"
   viewBox="0 0 106.96 106.96"
   sodipodi:docname="icon_Geschlechtergerechtigkeit.eps"
   xmlns:inkscape="http://www.inkscape.org/namespaces/inkscape"
   xmlns:sodipodi="http://sodipodi.sourceforge.net/DTD/sodipodi-0.dtd"
   xmlns="http://www.w3.org/2000/svg"
   xmlns:svg="http://www.w3.org/2000/svg"><defs
     id="defs6" /><sodipodi:namedview
     id="namedview4"
     pagecolor="#ffffff"
     bordercolor="#666666"
     borderopacity="1.0"
     inkscape:pageshadow="2"
     inkscape:pageopacity="0.0"
     inkscape:pagecheckerboard="0" /><g
     id="g8"
     inkscape:groupmode="layer"
     inkscape:label="ink_ext_XXXXXX"
     transform="matrix(1.3333333,0,0,-1.3333333,0,106.96)"><g
       id="g10"
       transform="scale(0.1)"><path
         d="M 451.137,479.277 H 304.602 v 32.567 h 146.535 z m 0,-66.754 H 304.602 v 32.563 h 146.535 z m 47.215,319.122 v -32.563 h 83.039 L 470.676,588.367 c -26.051,21.164 -58.613,32.563 -92.809,32.563 -83.035,0 -149.793,-66.754 -149.793,-149.793 0,-76.524 58.614,-140.024 133.512,-148.164 v -87.918 h -97.691 v -32.567 h 97.691 v -97.687 h 32.562 v 97.687 h 97.692 v 32.567 h -97.692 v 87.918 c 74.899,8.14 133.512,71.64 133.512,148.164 0,35.82 -13.023,68.383 -32.562,92.808 L 605.813,674.66 v -83.039 h 32.562 V 730.016 H 498.352 v 1.629"
         style="fill:#040606;fill-opacity:1;fill-rule:nonzero;stroke:none"
         id="path12" /></g></g></svg>
