<?xml version="1.0" encoding="UTF-8" standalone="no"?>
<!-- Created with Inkscape (http://www.inkscape.org/) -->

<svg
   version="1.1"
   id="svg2"
   xml:space="preserve"
   viewBox="0 0 106.96 106.96"
   sodipodi:docname="icon_Gruendungen.eps"
   xmlns:inkscape="http://www.inkscape.org/namespaces/inkscape"
   xmlns:sodipodi="http://sodipodi.sourceforge.net/DTD/sodipodi-0.dtd"
   xmlns="http://www.w3.org/2000/svg"
   xmlns:svg="http://www.w3.org/2000/svg"><defs
     id="defs6" /><sodipodi:namedview
     id="namedview4"
     pagecolor="#ffffff"
     bordercolor="#666666"
     borderopacity="1.0"
     inkscape:pageshadow="2"
     inkscape:pageopacity="0.0"
     inkscape:pagecheckerboard="0" /><g
     id="g8"
     inkscape:groupmode="layer"
     inkscape:label="ink_ext_XXXXXX"
     transform="matrix(1.3333333,0,0,-1.3333333,0,106.96)"><g
       id="g10"
       transform="scale(0.1)"><path
         d="M 100.199,136.211 249.863,285.879 272.891,262.852 123.223,113.188 100.199,136.211"
         style="fill:#040606;fill-opacity:1;fill-rule:nonzero;stroke:none"
         id="path12" /><path
         d="m 110.398,241.367 92.102,92.102 23.027,-23.028 -92.101,-92.101 -23.028,23.027"
         style="fill:#040606;fill-opacity:1;fill-rule:nonzero;stroke:none"
         id="path14" /><path
         d="m 203.98,146.527 92.102,92.102 23.027,-23.027 -92.101,-92.102 -23.028,23.027"
         style="fill:#040606;fill-opacity:1;fill-rule:nonzero;stroke:none"
         id="path16" /><path
         d="m 549.184,492.305 c -30.934,0 -55.356,26.05 -55.356,55.355 0,30.938 26.051,55.36 55.356,55.36 30.937,0 55.359,-26.051 55.359,-55.36 0,-29.305 -24.422,-55.355 -55.359,-55.355 z M 472.66,687.684 v 0 L 339.152,554.176 h -58.617 v 0 L 215.41,487.422 v 0 l -83.039,-83.039 h 83.039 l 94.434,-94.434 91.176,-91.179 v -83.036 l 40.707,40.704 v 0 l 107.457,107.46 v 55.36 l 135.14,135.137 V 686.059 H 472.66 v 1.625"
         style="fill:#040606;fill-opacity:1;fill-rule:nonzero;stroke:none"
         id="path18" /></g></g></svg>
