<?xml version="1.0" encoding="UTF-8" standalone="no"?>
<!-- Created with Inkscape (http://www.inkscape.org/) -->

<svg
   version="1.1"
   id="svg2"
   xml:space="preserve"
   viewBox="0 0 106.96 106.96"
   sodipodi:docname="icon_Digitalisierung.eps"
   xmlns:inkscape="http://www.inkscape.org/namespaces/inkscape"
   xmlns:sodipodi="http://sodipodi.sourceforge.net/DTD/sodipodi-0.dtd"
   xmlns="http://www.w3.org/2000/svg"
   xmlns:svg="http://www.w3.org/2000/svg"><defs
     id="defs6" /><sodipodi:namedview
     id="namedview4"
     pagecolor="#ffffff"
     bordercolor="#666666"
     borderopacity="1.0"
     inkscape:pageshadow="2"
     inkscape:pageopacity="0.0"
     inkscape:pagecheckerboard="0" /><g
     id="g8"
     inkscape:groupmode="layer"
     inkscape:label="ink_ext_XXXXXX"
     transform="matrix(1.3333333,0,0,-1.3333333,0,106.96)"><g
       id="g10"
       transform="scale(0.1)"><path
         d="m 578.559,300.18 c -9.766,8.14 -21.164,9.769 -32.563,8.14 -3.258,-1.629 -8.141,-1.629 -11.398,-3.257 -4.883,9.773 -14.653,16.285 -26.047,19.539 -11.399,3.257 -21.168,1.628 -30.938,-3.254 -6.511,11.394 -16.281,17.91 -27.679,21.164 -6.512,1.629 -13.024,1.629 -19.539,-1.629 0,22.797 0,56.988 0,76.523 0,13.028 -6.512,24.426 -16.282,32.567 -9.769,8.14 -22.793,11.394 -35.82,8.14 -21.164,-4.886 -34.191,-21.168 -34.191,-43.961 v -66.754 c 0,-30.937 0,-63.5 0,-94.433 -1.629,1.625 -4.883,4.883 -6.512,6.512 l -8.141,8.14 c -9.769,9.77 -22.793,13.024 -37.449,11.395 -16.281,-3.254 -29.305,-13.024 -34.191,-27.68 -4.883,-14.652 -1.629,-32.562 8.14,-45.586 24.422,-30.937 50.477,-60.242 74.899,-89.551 19.539,-22.7927 40.703,-35.82 66.754,-40.7028 H 594.84 L 593.215,272.5 c 1.629,8.141 -4.887,19.539 -14.656,27.68"
         style="fill:#040606;fill-opacity:1;fill-rule:nonzero;stroke:none"
         id="path12" /><path
         d="m 373.41,630.699 v -94.433 h 29.309 v 94.433 c 21.164,6.512 35.816,24.422 35.816,48.844 0,27.68 -22.793,50.477 -50.472,50.477 v 0 c -13.024,0 -26.051,-6.516 -35.821,-16.286 -9.769,-9.765 -14.652,-22.793 -14.652,-35.82 1.629,-22.793 16.281,-40.703 35.82,-47.215"
         style="fill:#040606;fill-opacity:1;fill-rule:nonzero;stroke:none"
         id="path14" /><path
         d="m 212.223,555.805 c 0,0 1.625,0 0,0 9.765,0 16.281,1.625 22.793,6.511 l 61.871,-61.871 21.164,21.164 -61.867,61.871 c 3.254,6.516 6.511,14.657 6.511,24.426 0,27.676 -22.797,50.473 -50.476,50.473 v 0 c -13.024,0 -26.047,-6.516 -35.817,-16.281 -9.769,-9.77 -14.656,-22.797 -14.656,-35.821 1.629,-29.308 24.426,-50.472 50.477,-50.472"
         style="fill:#040606;fill-opacity:1;fill-rule:nonzero;stroke:none"
         id="path16" /><path
         d="m 477.613,498.816 61.871,61.872 c 6.512,-3.258 14.653,-4.883 22.793,-4.883 0,0 0,0 1.629,0 27.68,0 48.844,22.793 48.844,50.472 0,27.676 -22.793,50.473 -50.473,50.473 v 0 c -13.023,0 -26.05,-6.512 -35.82,-16.281 -9.769,-9.77 -14.652,-22.793 -14.652,-35.821 0,-8.14 3.258,-16.281 6.511,-22.793 l -60.242,-60.242 19.539,-22.797"
         style="fill:#040606;fill-opacity:1;fill-rule:nonzero;stroke:none"
         id="path18" /></g></g></svg>
