<?xml version="1.0" encoding="UTF-8"?>
<svg id="Layer_1" data-name="Layer 1" xmlns="http://www.w3.org/2000/svg" version="1.1" viewBox="0 0 325.3 94.2">
  <defs>
    <style>
      .cls-1 {
        fill: #000;
        stroke-width: 0px;
      }
    </style>
  </defs>
  <polygon class="cls-1" points="308.5 27.1 325.3 27.1 325.3 19.1 282.9 19.1 282.9 27.1 299.7 27.1 299.7 75.1 308.5 75.1 308.5 27.1"/>
  <rect class="cls-1" x="260.7" y="19.1" width="8.8" height="56"/>
  <polygon class="cls-1" points="206.8 32.5 206.9 32.5 220.3 75.1 228.9 75.1 247.3 19.1 238.2 19.1 224.7 60.9 224.5 60.9 211.4 19.1 202.6 19.1 189.5 60.9 189.3 60.9 175.7 19.1 166.5 19.1 184.9 75.1 193.4 75.1 206.8 32.5"/>
  <path class="cls-1" d="M139.3,27.1c2.8,0,5.1.9,6.9,2.7,1.8,1.8,2.7,4.1,2.7,6.9s-.9,5.1-2.7,6.9c-1.8,1.8-4.1,2.7-6.9,2.7h-14.4v-19.2h14.4ZM147,52.9c3.3-1.4,5.8-3.5,7.8-6.4,1.9-2.9,2.9-6.1,2.9-9.8s-.8-6.3-2.4-9-3.8-4.8-6.6-6.3c-2.8-1.5-6-2.3-9.5-2.3h-23.2v56h8.8v-20.8h13.2l11.6,20.8h10l-12.6-22.2Z"/>
  <path class="cls-1" d="M75.1,67.9c-3.8,0-7.3-.9-10.5-2.8-3.2-1.8-5.7-4.4-7.6-7.6-1.8-3.2-2.8-6.7-2.8-10.5s.9-7.3,2.8-10.5c1.8-3.2,4.4-5.7,7.6-7.6,3.2-1.8,6.7-2.8,10.5-2.8s7.3.9,10.5,2.8,5.7,4.4,7.6,7.6c1.8,3.2,2.8,6.7,2.8,10.5s-.9,7.3-2.8,10.5c-1.8,3.2-4.4,5.7-7.6,7.6-3.3,1.9-6.8,2.8-10.5,2.8M75.1,75.9c5.5,0,10.5-1.3,15-3.8,4.5-2.6,8.1-6,10.7-10.4s3.9-9.2,3.9-14.5-1.3-10.1-3.9-14.5-6.1-7.9-10.7-10.4c-4.5-2.6-9.5-3.8-15-3.8s-10.5,1.3-15,3.8c-4.5,2.6-8.1,6-10.7,10.4-2.6,4.4-3.9,9.2-3.9,14.5s1.3,10.1,3.9,14.5,6.1,7.9,10.7,10.4c4.4,2.5,9.5,3.8,15,3.8"/>
  <polygon class="cls-1" points="9.9 51.9 33.9 51.9 33.9 43.5 9.9 43.5 9.9 27.5 40.3 27.5 40.3 19.1 1.1 19.1 1.1 75.1 9.9 75.1 9.9 51.9"/>
</svg>